<?xml version="1.0" encoding="UTF-8"?>
<!-- Generator: visioncortex VTracer 1.0.0-alpha.4 -->
<svg version="1.1" xmlns="http://www.w3.org/2000/svg" width="1254" height="1254">
<path d="M0,1254C0,836,0,418,0,0C418,0,836,0,1254,0c0,418,0,836,0,1254c-418,0-836,0-1254,0ZM1145,742c-1.3208,31.8264-.402,64.0907-.5209,95.9654c-.2207,59.1939-.5303,118.3872-.4772,177.5818c.0275,30.4959,3.4557,85.0181-1.8352,112.7413c-2.8214,14.7836-10.0563,29.5738-21.9048,39.1808c-9.6722,7.8425-21.4822,13.2984-33.9583,14.4368c-16.8514,1.5377-34.9709,.2385-51.956,.2479c-33.8606,.0189-67.7214,.0302-101.5821,.0394c-104.6239,.0285-209.2478,.027-313.8717,.0629c-99.9873,.0343-199.9747,.0612-299.9621,.103c-32.4171,.0136-64.8345,.0325-97.2515,.0222c-16.9904-.0054-34.9569,1.2164-51.8249-.4503c-15.2292-1.5048-29.9526-8.3235-40.6875-19.3059c-.4419-.4521-.8768-.9112-1.3044-1.3769c-.8543-.9304-1.6796-1.8875-2.475-2.8688c-.7974-.9836-1.5646-1.9916-2.3014-3.0214c-.7417-1.0365-1.4525-2.0951-2.1329-3.1729c-.5148-.8155-1.0122-1.6421-1.4924-2.4785c-5.5045-9.5867-7.7965-19.0871-8.524-30.0519c-2.4031-36.2216-.3273-73.8716-.3569-110.2428c-.0594-72.6439-.0333-145.2883-.0379-217.9323c-.0138-214.1563-.4537-428.3208-.061-642.476c.0539-29.3939,12.1944-54.864,40.0979-67.1878c8.697-3.8411,18.0747-5.6197,27.543-6.0002c58.8564-2.3652,118.7778-.1202,177.7418-.1176c117.0906,.0053,234.1815,.009,351.2721-.0408c82.5839-.0351,165.168-.0577,247.7519-.0449c27.1416,.0042,54.2838-.0324,81.4253,.004c14.1093,.0189,28.7013-.7953,42.7441,.4101c16.962,1.4561,33.023,7.7443,45.5227,19.5266c.9429,.8888,1.8531,1.8122,2.7292,2.7669c.654,.7126,1.289,1.4427,1.9046,2.1888c7.88,9.5499,12.8143,22.0825,14.3214,34.3359c1.7188,13.9745,.5665,29.1334,.5595,43.2482c-.0134,26.9817-.0373,53.9635-.0513,80.9453c-.0453,87.4194-.6068,174.8672,.0624,262.2831c.079,10.3113-1.4701,53.7359,.9988,60.5303c.618,1.7007,3.1237,1.4254,4.6355,1.546c4.5215,.3606,15.716,2.7831,17.8533-2.2026c1.5226-3.5517,3.1357-431.8859-.9595-454.0484c-4.0145-21.726-15.8491-40.6338-32.6291-54.865c-14.7455-12.5058-33.5608-18.0465-52.5293-19.7577c-21.7492-1.962-44.4869-.6704-66.3535-.6704c-39.1831,0-78.3662-.0189-117.5493-.021c-120.5571-.0063-241.1142-.01-361.6713-.0472c-84.3747-.026-168.7497-.0579-253.1245-.0325c-23.9548,.0072-47.91,.015-71.8649-.0034c-16.165-.0125-32.8533-.8178-48.858,1.7787c-25.034,4.0613-49.0392,20.3138-62.361,41.8631c-6.9804,11.2913-11.539,24.1058-13.1621,37.2856c-2.1788,17.6923-.6689,37.0024-.6818,54.8787c-.0249,34.6064-.0295,69.2129-.0401,103.8193c-.0331,108.491-.0319,216.982-.0595,325.4729c-.0286,112.2505-.0509,224.5011-.1062,336.7516c-.0179,36.4563-.0301,72.9129-.0259,109.3693c.0022,19.406-1.4417,40.0291,.6609,59.2733c1.4217,13.0126,5.3184,25.5693,11.7894,36.9636c12.7912,22.5227,34.6914,40.2297,60.4163,45.3142c26.2015,5.1787,68.6763,1.9905,96.5752,1.9863c65.7279-.0098,131.4559-.0047,197.1839-.0046c138.6255,.0001,277.2512-.0403,415.8768-.0646c45.8759-.008,91.752-.0349,137.6279-.0283c24.0299,.0035,48.43,.8882,72.4172-.1093c35.3815-1.4714,68.5626-21.6955,82.5387-54.8239c3.5413-8.3942,6.387-18.1638,7.1735-27.2619c1.1743-13.583,.2469-27.9471,.2536-41.6163c.0132-27.0003,.0049-54.0006,.0048-81.0009c-.0004-82.7292-.0605-165.4589-.0048-248.1881c.0016-2.3561,.5978-10.247-.5514-11.79c-.8673-1.1644-21.0718-1.1265-22.5801,.3818ZM355,354c-4.9306,4.0498-10.3269,8.3787-13.3033,14.1509C334.1709,382.7461,345.3155,394.2771,360,394c-11.5877,53.1868,56.9398,24.8292,15,13c.732-8.3452,7.9591-19.0248,1.1238-25.7979C372.4287,377.5405,356.5922,379.6925,357,376c1.1302-10.2324,29.6076-19.2761,20.7436-35.1791c-2.3284-4.1776-5.3027-5.7735-10.0205-6.2465c-7.538-.7558-14.6393,2.1118-21.6454,4.4664c-5.8912,1.9799-29.4319,9.5852-30.7726-.0508c-.5712-4.1055,1.1791-7.1973,3.8971-10.0872c1.2721-1.3525,2.6782-2.5749,4.1715-3.677c20.3905-15.0475,49.7347-11.6215,70.2207-28.7897C405.7663,286.2355,411.1678,268.5839,394,260c7.0535-6.7915,17.8764-15.2024,22.1915-24.213C426.82,213.5929,406.1491,193.2041,384,195c0-.66,0-1.32,0-2c20.2521-6.0527,51.3392-23.3902,61.5992-42.6501c4.3071-8.0851,3.6635-17.6536-2.6156-24.4585c-37.8987-41.0717-176.2922,21.4053-205.6422,57.2507c-8.3168,10.1574-13.3869,23.3519-5.6447,35.2753C243.372,236.3981,278.7301,228.0181,296,225c-16.5825,12.0522-36.0634,21.4631-37.2253,43.9861c-.519,10.0607,2.8408,17.0484,11.9258,21.825c22.3891,11.7716,59.3367,.2038,81.4545-8.1264c7.1758-2.7026,15.5566-7.5263,22.9104-8.928c4.3491-.829,8.3016-.1787,11.9346,2.2433c-3.4255,23.4075-75.2313,20.3949-87.8022,52.8381c-2.2305,5.7565-2.6815,14.2802,.4528,19.7187C310.5004,367.3829,338.8657,358.676,355,354ZM515,668c47.871-33.1142,78.8388-72.2388,104.463-124.1744c8.8981-18.0348,18.0436-38.6415,18.8653-59.0137c.3984-9.8765,.0523-12.552-10.3283-10.8119c-22.7692,66.392-51.0945,126.8202-108.6023,170.4662c-18.2665,13.8635-38.3414,25.4566-61.444,28.4832c-4.7527,.6227-13.6391-.4876-17.6547,1.1269c-1.9006,.7641-2.3666,2.0845-2.5802,3.9315C436.6739,687.0418,449.8221,690,457,690c-3.0864,13.8163-11.4177,43.2088-25,50c2.231-8.4657,4.7792-21.5648,.375-29.6875c-14.683-27.08-75.443,2.1307-62.3344,60.101C374.1101,788.4103,384.4719,801.1221,401,809c-1.2113,5.4726-2.1326,10.3494-2,16c-20.9205-8.5815-33.5319-17.1422-41.1604-39.6043c-1.7704-5.2126-2.4213-13.8876-5.0007-18.3142c-1.2592-2.1608-3.763-2.7259-5.8389-1.0815c-2.3038,1.8249-2.7086,8.8835-2.6567,11.5762C344.9022,806.6045,367.2792,835.6024,398,835c-.5489,11.4662-.2419,23.5163,5,34c-18.2699,.884-35.4693,7.6016-50.647,17.6129c-60.7619,40.0789-75.2425,124.4469-84.3788,191.6002c-1.9499,14.3318-10.1665,70.7021-6.5682,80.6989c1.309,3.6367,3.8838,5.037,7.7357,5.2949c3.4102,.2284,5.4908-.1388,8.0676-2.4931c1.2901-1.1788,2.3864-3.0102,2.7907-4.7138c2.899-12.217,2.0983-28.0729,3.0288-40.6295c3.1371-42.3334,3.6171-101.7123,19.5837-141.47c7.1368-17.7711,19.2524-32.1548,31.8231-46.325C358.3437,901.6251,378.0744,890.4689,414,885c6.1854,14.0181,48.8288,40.6681,63,51c-13.078,43.88-37.1525,83.877-62,122c-7.5375-17.8085-7.9858-38.6974-14.0907-57.0226c-1.7749-5.3276-2.3052-5.2828-7.7062-5.8524c-3.3644-.3548-3.497,3.7682-3.444,6.1656c.4945,22.3592,6.2677,45.2594,11.5641,66.8957c.6943,2.8362,2.1282,6.0318,1.118,8.9016c-1.7897,5.0845-7.4325,11.3156-10.5507,15.8735C385.4291,1102.4059,346,1157.4861,346,1164c4.5877,.6813,14.0053,2.7696,18,0c7.1954-4.9887,34.3723-50.0609,41.3426-60.5022c14.0833-21.0963,28.257-42.1323,42.2377-63.297c15.1444-22.9263,56.497-77.6979,46.6512-109.0225c-6.0501-19.2484-68.9418-36.3415-77.1245-73.0685c-.6219-2.7914-1.2181-5.6229-1.6946-8.4423c-1.8776-11.1088-1.2111-23.0234,1.1382-34.0052c1.7783-8.3125,4.629-16.421,8.5847-23.9503c.8989-1.7111,1.8554-3.392,2.8704-5.0369C432.5504,779.31,436.8966,774.0897,446,775c.4591,1.0274,1.1802,2.876,1,4c-.7076,4.4133-7.2305,12.4826-9.2539,17.2747c-6.6463,15.7408-12.9831,49.8261-1.6516,64.5042c2.4644,3.1922,8.2414,3.8862,9.9055-.7789c1.6795-4.7081-2.5092-20.0849-2.4636-26.2637c.0811-10.9768,10.1979-63.3269,28.9312-54.3983c2.1999,1.0485,2.7263,2.6847,2.2707,5.0018c-1.008,5.1269-5.7995,10.6288-7.9224,15.6339c-5.6241,13.2594-9.6179,39.2607-2.9605,52.6186c3.3816,6.785,10.4986,6.5629,11.2694-1.6453c.4573-4.8697-1.007-10.0628-1.23-14.9772c-.5857-12.9059,2.0346-26.3526,8.2349-37.7459c5.5586-10.2145,18.756-13.5745,16.9024,1.6866c-1.4475,11.9177-7.1396,20.6908-5.5674,33.505c5.1119,41.6658,67.6317,41.9578,68.8333,86.7533c.5803,21.629-8.8659,47.3864-14.1923,68.3967c-10.8849,42.9368-22.3456,85.6952-33.6761,128.5142C510.6837,1131.2358,503,1149.6491,503,1164c5.3333,0,10.6667,0,16,0c6.4144-16.0928,39-135.9494,39-147c8.3302,4.4461,17.0497,9.2972,26.4873,10.8047c5.2257,.8348,17.7283,.0191,11.5127-8.8047c-4.6541-6.6071-22.7789-9.238-29.7914-13.8984c-.9968-.6624-3.1291-2.8393-3.2086-4.1016c-.4443-7.0529,5-15.5271,5-23c29.3353,16.4288,60.0796,23.4162,89.1871,1.8358C660.4755,977.3979,668,972.0606,668,968c.66,0,1.32,0,2,0c.4967,5.7908,4.2242,17.9647,3.0014,22.6434C668.9174,1006.2687,618.8789,1016.6383,617,1021c-2.4672,5.7273-2.1518,96.5833-2.2219,110.3899c-.0408,8.0337-1.912,21.0937,.076,28.5803c1.01,3.8034,3.8168,4.5162,7.3158,3.7857c8.7419-1.8253,6.5244-21.5658,6.6645-28.7738c.6801-34.9946,1.4594-69.9879,2.1656-104.9821c17.6104-4.587,30.8553-10.9035,46-21c4.4578,33.6975,11.1145,67.3788,17.2154,100.8226c3.1864,17.4675,5.1949,37.4083,10.7846,54.1774c5.6667,0,11.3333,0,17,0c-2.1858-21.8017-7.4914-43.7308-11.4117-65.3069c-6.7773-37.3003-13.2295-74.6568-19.8928-111.9769c-3.428-19.1993-9.5953-39.9431-10.5016-59.3125c-.3603-7.7016,.7908-15.1961,3.9394-22.2649c14.1538-31.7767,59.0926-34.5315,73.2848-66.5795c5.1008-11.5184,3.4422-25.245-.5506-36.8864c-1.3953-4.068-3.8113-8.1323-4.1769-12.4541c-.535-6.3251,1.5204-11.108,8.8012-8.5533c5.815,2.0405,10.3134,10.8618,12.6684,16.223c7.8876,17.9564,4.3359,50.6265,5.3955,52.9635c1.5534,3.4262,5.308,3.2807,8.5087,2.5922c2.8969-.6232,2.7159-2.6494,3.6402-5.2616c1.8488-5.2247,2.5707-10.9259,2.7647-16.4471c.2681-7.6327-.5809-15.3243-2.2921-22.7613C789.1257,794.7118,783.2495,783.7346,775,773c2.011-4.0219,2.4874-4.8564,7.3485-4.1726c7.1724,1.0089,12.7943,12.2456,16.1058,17.9559c14.6348,25.2367,16.5612,58.6798-.3002,83.245C795.6032,873.7448,786,882.5888,786,886c-5.6397,2.4007-35.5105,29.8334-40.3338,35.5193c-1.6473,1.9419-3.33,4.9245-3.6662,7.4807c-1.5361,11.6789,6.8477,29.849,11.0744,40.6801c8.1043,20.7673,83.6869,185.8925,91.0779,193.4677c1.9211,1.969,14.58,.9152,17.8477,.8522c-2.9926-22.5893-40.5328-74.0628-39.5943-90.871c.7994-14.3162,13.565-46.3175,17.9017-62.7452c1.3546-5.1313,6.4658-28.6221,1.1801-32.8723c-1.2671-1.0189-4.8759-.5458-6.4875-.5115c-8.6162,17.721-12.6662,39.3301-18.0066,58.3294c-1.7676,6.2885-3.0893,13.8624-5.9934,19.6706c-8.0811-16.5359-55.2613-112.3549-51-124c2.4798-6.7768,19.804-17.6661,25.5585-23.524c2.7187-2.7676,18.9428-19.4741,21.3245-19.5131c9.0101-.1476,17.6775,5.8887,25.2938,10.0434c64.7283,35.31,77.5384,147.5251,80.3576,213.8458c.411,9.6685-1.0712,38.7842,1.7067,45.9448c1.7831,4.5966,5.0669,6.5783,9.8922,6.408c5.9665-.2106,8.8798-4.4794,9.012-10.0355c1.9823-83.3054-6.3191-206.1563-75.9456-263.07C846.8595,882.6471,831.9156,872,818,872c5.2687-12.4261,8.8288-23.6307,8.9755-37.2747c.0717-6.6698-3.8953-19.3379-1.8637-24.6782c1.6181-4.2536,7.4773-6.4624,10.6229-9.7949c7.4139-7.8544,14.8296-25.8738,12.1714-36.7429c-1.7878-7.3099-8.1894-.1474-9.6715,3.6538C833.6942,778.8084,830.0273,786.9727,821,796c-3-6.6667-6-13.3333-9-20c18.4121-21.5328,23.7201-56.3421,2.0927-78.0415C808.4572,692.3042,801.2508,688,793,688c.2568-13.4121-.4128-26.6785-2-40c6.1098,11.9249,13.0317,23.6551,21.6334,33.9677c17.5258,21.0118,35.7853,34.7569,41.9667,63.3092c6.5892,30.4359-15.2041,58.5324-4.0034,87.9529c4.0194,10.5575,17.3207,23.8438,29.6571,22.595c16.0779-1.6274-1.2981-12.6932-4.2259-15.4336c-2.4827-2.3239-4.5544-5.0091-6.1039-8.0395c-14.298-27.9623,17.5789-59.8568-1.2941-105.4106C865.0026,718.186,859.898,708.593,853,702c14.4535-.9993,46.4059-4.0581,48.8297-22.9882c.2246-1.7538,.324-4.2666-1.8297-5.0118c-3.207-1.1096-13.7547,4.4891-17.8047,5.1609c-13.5225,2.2429-31.6-3.6969-37.0147-17.3958c-3.7-9.361,4.7661-27.8745,6.4408-38.0679c1.4152-8.614,1.9253-17.3649,1.7333-26.0881c-1.8005-81.7989-55.8432-166.9177-128.7869-203.6871C708.3298,385.7368,690.7402,380.7122,673,377c0-3.8913,4.8419-9.0975,6.7152-12.6605c7.5057-14.2762,10.1991-31.9741,7.07-47.8395c-7.4153-37.5967-40.2211-68.675-79.9293-65.165C595.923,252.3015,581.4204,260.7304,577,261c-2.3219,.1416-9.2413-3.3233-12.2774-3.8819c-12.3323-2.2687-25.4682-.2826-36.9924,4.4779c-15.526,6.4137-30.8388,19.1274-39.2917,33.688c-2.744,4.7266-3.995,11.5574-7.1036,15.6453c-4.1526,5.4608-15.8577,9.4198-22.2332,16.8945c-16.5765,19.4347-21.3939,54.4276-7.7384,76.7817C454.3558,409.5042,458.9989,413.9134,463,418c-53.6095,41.5534-92.2571,87.2476-110.5898,153.8148c-6.4519,23.4273-7.8798,50.1994-17.637,72.343c-6.5252,14.8087-26.6709,29.1413-42.6828,29.7904C279.104,674.4747,276.0852,665.8376,272,665c-3.8173-.7827-6.3337,1.2538-6.2274,4.911c.1426,4.9048,3.5752,10.2199,6.9356,13.5995C288.9484,699.8432,308.4042,693,328,693c-22.8151,23.9942-60.576,73.5499-37.9293,107.7522C295.5703,809.0581,301.7714,813.9526,312,814c.3661-1.1237,1.2901-3.8758,1-5c-.413-1.6006-3.9592-4.3471-5.0544-5.6405c-6.6203-7.8186-9.1686-19.6015-8.2038-29.6186c3.3185-34.4548,43.058-74.1741,63.121-101.8532C364.8576,669.1357,373.5081,657.2356,367,655c-.3485,.0263-.6971,.0526-1.0562,.0797C357.6996,656.0225,341.0547,675.9585,323,679c33.3479-24.5182,37.4279-60.4532,46.6163-97.7055c4.1539-16.8409,9.7632-33.3801,17.5996-48.8811c33.1385-65.5498,139.596-160.3014,218.7827-143.1259c27.9522,6.0628,43.7531,27.8374,51.4218,54.0329c1.4149,4.833,2.2035,14.092,5.0192,17.8927c6.0536,8.171,11.6073-1.3798,11.6565-7.6912c.0634-8.1291-2.1417-17.2048-4.6881-24.8852C664.9882,415.3057,657.6557,404.5769,650,393c22.8787,.3039,44.3555,7.468,64.5594,17.8036c64.8345,33.1668,110.0276,101.1137,117.7362,173.4618c1.2251,11.4975,1.2983,23.1846-.0054,34.6801c-1.4547,12.8277-9.4435,31.4974-6.0026,43.6245C829.7745,674.8596,846.9413,684.4143,858,689c-1.3438-.0262-2.687-.0918-4.0265-.2031c-5.6291-.4677-11.151-1.7754-16.2847-4.1587c-7.0782-3.2859-13.737-8.6548-18.4599-14.8643c-11.7476-15.4452-11.539-36.0732-16.5693-54.1196C791.0281,573.9256,766.1465,538.2971,736,507.75c-4.1492-4.2043-8.2371-9.8782-14.7978-8.2059c-3.0896,.7876-3.3685,5.9919-2.2022,8.4559c2.0255,4.2794,8.3652,9.2596,11.5203,13.1028c8.1373,9.9118,15.9571,20.3589,23.2027,30.9384C766.0823,570.0874,776.6205,589.3727,784,610c-34.1334-40.1742-74.8866-76.4293-103.4612-120.9194c-1.6382-2.5507-4.1164-6.951-7.6091-7.3697c-2.8779-.345-6.4325,1.9689-7.9297,4.2891c-4.296,6.6575-6.1946,19.6813-8.8591,27.4934c-4.271,12.5224-9.5522,24.696-15.6624,36.4289C614.209,600.3647,570.315,649.7256,515,668ZM403,609c6.0791-13.2288,9.0255-28.0237,14.5343-41.6172c14.211-35.0669,38.0668-69.5305,67.7661-93.2643c6.5-5.1943,46.5831-28.7711,47.6996-32.1185c.6232-1.8683-1.3492-6.0552-3-7c-4.0739-2.3317-16.5293,2.1706-20.4543,3.9168c-16.4917,7.3369-31.1087,20.1666-44.0231,32.5798c-35.8417,34.4506-61.9138,73.8521-70.6871,123.7827C393.1777,604.7142,392.5693,609.1896,403,609Zm394-32c13.3356-.6505,2.9276-22.7216,.0757-30.0466C786.7646,520.4695,747.5902,458.3452,719,451c-1.8806-.4832-4.2288-.2593-5.9336,.6603c-10.0196,5.4048,14.3017,22.7699,18.1316,26.4433c23.279,22.3278,42.4905,49.7462,55.6875,79.1262C789.4819,563.01,791.9721,573.1902,797,577ZM428,628c21.2139,13.8706,108.083-86.4879,118.0486-106.6483c.8809-1.7822,2.5215-5.1748,2.4514-7.1642c-.0518-1.4708-1.1678-3.1484-2.3125-4c-7.5228-5.5964-27.9008,24.0972-33.0264,29.8305c-22.3901,25.0446-45.2117,48.2152-71.263,69.506C438.8497,612.0154,429.5584,617.7976,428,621c-.696,1.4302-.19,5.3852,0,7Zm130-90c-2.6477-.9456-4.6621-1.6454-7.1037,.1606c-7.8575,5.8121-18.3222,24.7583-25.2001,33.2776c-7.6443,9.4685-16.213,18.0173-24.3965,26.9945c-20.5265,22.5173-49.744,42.5342-75.8131,58.0821c-10.5795,6.3096-29.2795,14.1321-37.7884,21.8075c-1.1647,1.0506-1.0137,2.9538-1.0239,4.4792c-.0559,8.3926,12.6979,4.2608,16.9976,2.5188c17.4393-7.0655,34.2545-16.2401,50.0121-26.4904c37.5166-24.4048,71.9466-57.3253,95.4024-95.646C553.5529,555.8868,560.3993,546.8786,558,538Zm627,109c-40.3561,.1395-80.7179,.2526-121.0729,.5602c-6.0118,.0458-12.8005-1.0395-17.9069,2.774c-8.2026,6.1259-5.153,19.5478,4.9798,21.6658c10.726,2.242,25.7428,.3834,36.9212,.4599c32.359,.2216,64.7194,.384,97.0788,.5401c-6.3337,6.2729-30.1552,29.0027-33.023,35.0393c-1.9517,4.1084-2.055,9.0434,.8671,12.6848c3.1795,3.9623,8.0648,5.8187,13.1559,4.2759c5.3622-1.6249,58.82-56.556,60.5067-62.4172c1.0707-3.7208,.2426-6.0322-1.8526-9.1753c-3.8515-5.7778-49.8799-52.6541-54.3783-54.9213c-6.2439-3.1469-14.8935-1.0108-17.2742,5.982c-1.1331,3.3281-1.4095,6.1563,.2532,9.2969C1159.3904,625.3545,1175.4507,637.6187,1185,647ZM347,718c-7.5284-3.0113-9.4305,.9169-13.9961,7.2445c-20.9082,28.9778-23.7143,83.011,4.6126,108.1144C342.7951,837.9482,350.1143,842.6496,357,844c2.802,.5495,6.5022,.5695,9.2335-.288c2.005-.6295,2.7958-3.7065,1.7665-5.712c-.7176-1.3982-15.5959-10.6077-18.8575-14.3291c-19.4839-22.23-17.8676-54.6646-9.2113-81.0523c2.6339-8.0291,7.629-16.02,7.0688-24.6186Z" fill="#000000"/>
<path d="M246,209c-2.632-6.5801,.5941-10.9254,4.5865-16.0865c23.6277-30.5436,106.6171-56.4541,144.6384-60.4759c20.2129-2.138,55.6202-.4424,22.8399,24.7316c-9.6018,7.3738-21.1873,12.7188-32.0305,18.0382C361.9171,187.0386,268.6426,224.3826,246,209Z" fill="#000000"/>
<path d="M276,273c.8319-25.3732,54.6763-52.528,76.0791-59.6496c13.3551-4.4438,29.1872-7.1014,42.4251-.8621c4.8488,2.2854,7.1165,4.9485,6.9777,10.5772C400.7352,253.3418,292.2686,297.4029,276,273Z" fill="#000000"/>
<path d="M591,273c8.7114-4.5537,18.8496-5.4448,28.4422-3.7948c34.7692,5.9807,54.9281,41.8652,48.6489,75.2069c-1.7424,9.2517-5.8233,19.3455-12.628,26.0243c-18.0495,17.7159-27.4485,4.7624-46.0219,1.1181c-10.6857-2.0966-21.8415-1.6449-32.5893-.2669c-32.8081,4.2061-63.9747,16.2376-91.8294,33.905c-1.7303,1.0975-4.9064,3.4844-7.2139,2.8113c-9.8295-2.8671-14.9556-21.8676-15.7806-30.5751c-2.4462-25.8194,15.3874-56.1658,44.4033-52.9775c17.472,1.9199,33.4408,14.9318,44.709,27.6906c2.8354,3.2105,6.0243,9.6513,9.1992,11.9459c2.0298,1.4669,5.2296,.965,7.6605,.9122c3.0901-6.1803,.2548-11.4285-2.8878-16.8517C552.464,326.321,528.1186,311.0095,503,309c0-21.479,53.905-50.1166,77.9688-25.2422C588.2425,291.2766,591.2543,302.208,594,312c1.65,.33,3.3,.66,5,1c8.1005-11.3069-1.199-30.09-8-40Zm4,91c2.7685,.3638,4.9789,.4679,7.4269-1.0796c4.2874-2.7104,8.5512-8.9127,12.3263-12.5522c7.5827-7.3102,15.8852-13.7852,24.7422-19.4792c4.3417-2.7911,19.7735-10.4008,10.418-16.8266c-2.8622-1.9659-6.6174-1.1422-9.7294-.3144C628.8915,316.752,582.0613,351.0613,595,364Z" fill="#000000"/>
<path d="M675,511c9.5621,9.1149,17.0113,21.4754,25.7094,31.5727c13.3858,15.5393,61.7246,62.8915,67.2512,76.2575c8.9362,21.6117,9.2038,61.1607,9.1776,84.7111c-.0123,11.0404,2.1609,38.8163-.7563,48.0575c-.0872,.2448-.1745,.4896-.2644,.7419c-.1036,.1862-.2073,.3725-.3141,.5644c-2.1213,2.977-6.9217,3.0848-9.6966,5.3269c-2.2631,1.8285-2.6318,5.1327-5.3125,6.6205c-8.3386,4.6278-16.515,1.144-21.7318,12.2725c-12.652,26.9892,34.844,44.1871-21.5494,78.8416c-15.497,9.523-31.0177,19.1203-42.271,33.7531c-2.2469,2.9218-6.3344,11.3157-9.3471,12.5434c-17.4947,7.1294-76.8227,3.7368-92.5524-6.5645c-4.4333-2.9034-7.4474-9.7678-11.0037-13.8721c-4.8375-5.5829-10.5014-10.3473-16.4584-14.6882c-12.0723-8.7972-28.3929-15.8332-35.8649-29.2711c-10.5286-18.9352,18.2088-44.8268-6.6621-59.0748c-5.3069-3.0401-9.727-1.7013-14.5917-3.7142C482.2794,772.396,484.7278,767.2451,470,764c-2.029-12.3043-2.7714-63.5506,4.4112-72.3836c.9781-1.2029,6.4127-.9097,8.1513-.9914c31.5753-1.4834,61.4998-14.551,87.0103-32.6664c39.3233-27.924,70.7991-67.2824,90.6088-111.1778C663.4276,539.5881,670.8177,515.1823,675,511Zm13,109c.75,5.75,.75,5.75,3,8c1.9155,.4233,3.8339,.8373,5.7637,1.1902c14.0017,2.5783,26.0788,7.5574,36.0254,18.0246c2.742,2.214,4.727,2.5654,8.2109,2.7852c1.9375-1.0625,1.9375-1.0625,3-3c-.6097-7.8391-5.5318-12.9977-11.2969-17.9883C722.5551,621.5333,699.1723,608.0829,688,620Zm31,130c16.0077-8.3117,17.0651-32.4845,12.328-47.8556c-2.1777-7.0663-6.1307-14.2508-13.6673-16.4608C688.2919,677.0715,686.0602,755.1508,719,750ZM567,692c-37.3225-3.1629-25.5163,75.72,1.872,64.0354c6.8131-2.9067,10.7551-9.9148,12.6004-16.7545C585.7298,723.4999,583.1329,700.0664,567,692Zm80,84c.1381,1.082,.4396,5.2465,1,6c6.0741,8.1673,32.2026-12.5684,18.5807-29.1954c-2.4949-3.0453-6.2991-6.0316-10.1432-7.1171c-2.5022-.7066-6.0583-1.157-8.489,.0005c-4.2053,2.0026-6.6753,6.3736-2.9485,10.312c5.2834,5.5834,12.3487-2.4964,11.0999,10.9916c-.2706,2.9224-6.6975,7.3178-9.0999,9.0084Zm30,64c7.8048-7.8048-6.406-18.9334-12.8343-22.3412c-21.9871-11.6559-45.8022-.2205-61.2597,16.6184c-3.3665,3.6674-8.1764,8.5964-9.0429,13.7252c-.8517,5.0407,3.5854,8.7649,8.2441,6.1462c10.909-6.1321,13.473-20.1529,32.1327-26.3036C660.0649,819.3325,663.0902,840.2727,677,840Z" fill="#000000"/>
<path d="M802,762c-2.6116-1.2574-7.9661-2.8192-9.0433-5.5705C791.3936,752.4376,792.1651,708.6698,794,705c14.7784,1.7052,19.1722,26.2207,16.8177,37.9791C809.4151,749.9842,805.8789,756.1,802,762Z" fill="#000000"/>
<path d="M420,735c-9.9639-2.1661-18.2717-3.4973-18,9c4.7524-.3802,11.5626-.6754,14.5845,3.7832c.6076,.8964-1.7008,29.9128-2.5947,32.8089c-1.4429,4.6746-4.3165,8.398-6.9898,12.4079c-7.6374-2.4003-14.3118-10.7584-17.6143-17.785c-8.7631-18.6448-3.4025-57.205,22.6768-57.5275c2.2033-.0272,6.1392-.3381,7.8281,1.3828c2.4839,2.531,.4765,12.5819,.1094,15.9297Z" fill="#000000"/>
<path d="M430,763c1.071-3.7964,19.0149-22,22-22c.7341,7.2139,2,14.7608,2,22c-7.2233-3.2104-16.7568-3.2192-24,0Z" fill="#000000"/>
<path d="M579,914c18.0969,4.4188,36.3964,7.0485,55,8c-.1013,7.227-.146,14.4549-.219,21.6822c-.0654,6.4769,8.2498,7.809,10.7178,2.8134C647.0839,941.2629,645.9153,923.3305,650,921c3.0356-1.7319,9.4703-1.6669,13-2c.7903,7.5422,4.2922,21.9955,2.388,28.8145c-1.4779,5.2922-7.1094,10.9452-11.0674,14.6384c-19.7391,18.4188-45.8167,19.8762-69.3039,7.9056C581.5585,968.596,574.8569,965.5715,573,962c-.834-1.6041,5.8284-41.4532,6-48Z" fill="#000000"/>
</svg>
